<svg width="40" height="12" viewBox="0 0 40 12" fill="none" xmlns="http://www.w3.org/2000/svg">
<path d="M6.0531 11.9788C8.3469 11.9788 10.4071 10.7894 11.3416 9.00531L9.40885 7.87965C8.81416 9.00531 7.43363 9.83363 6.07434 9.83363C5.01239 9.83363 4.12035 9.47257 3.41947 8.7292C2.71858 7.98584 2.35752 7.09381 2.35752 6.01062C2.35752 4.9062 2.71858 3.99292 3.44071 3.24956C4.16283 2.5062 5.07611 2.14513 6.15929 2.14513C7.51858 2.14513 8.77168 2.93097 9.47257 4.14159L11.4053 3.05841C10.492 1.16814 8.43186 0 6.13805 0C4.33274 0 2.86726 0.573451 1.72035 1.69912C0.573451 2.82478 0 4.24779 0 6.01062C0 7.75221 0.573451 9.17522 1.69911 10.3009C2.82478 11.4265 4.29027 11.9788 6.0531 11.9788Z" fill="#68BEAF"/>
<path d="M19.4023 12C22.5457 12 24.4359 10.1522 24.4359 7.03009V0.276106H22.0784V7.00885C22.0784 8.77168 21.1014 9.83363 19.4023 9.83363C17.7244 9.83363 16.7262 8.7292 16.7262 7.00885V0.276106H14.3899V7.03009C14.3899 10.0885 16.3439 12 19.4023 12Z" fill="#68BEAF"/>
<path d="M39.2077 5.77699C39.2077 3.99292 38.6767 2.59115 37.636 1.55044C36.5953 0.509735 35.236 0 33.6006 0C31.8803 0 30.4572 0.573451 29.3741 1.69912C28.2909 2.82478 27.7599 4.24779 27.7599 5.96814C27.7599 8.98407 29.6077 11.9788 33.898 11.9788C35.8307 11.9788 37.6785 11.2566 38.8466 10.3858L37.8696 8.66549C36.8502 9.40885 35.2785 9.89735 33.9829 9.89735C31.7741 9.89735 30.521 8.68673 30.1811 6.90266H39.1227C39.1864 6.47788 39.2077 6.09558 39.2077 5.77699ZM33.6006 2.0177C35.321 2.0177 36.659 3.18584 36.8502 4.99115H30.1811C30.521 3.20708 31.8378 2.0177 33.6006 2.0177Z" fill="#68BEAF"/>
</svg>
